<svg id="svg" version="1.1" xmlns="http://www.w3.org/2000/svg" xmlns:xlink="http://www.w3.org/1999/xlink" width="400" height="376.62337662337666" viewBox="0, 0, 400,376.62337662337666"><g id="svgg"><path id="path0" d="M199.906 143.032 L 16.949 143.127 16.949 145.010 L 16.949 146.893 15.631 146.893 L 14.313 146.893 14.313 153.296 L 14.313 159.699 12.994 159.699 L 11.676 159.699 11.676 172.128 L 11.676 184.557 93.433 184.557 C 149.071 184.557,175.424 184.682,175.919 184.947 C 176.636 185.331,176.648 186.710,176.648 272.518 C 176.648 348.052,176.720 359.699,177.189 359.699 C 177.524 359.699,177.775 360.165,177.848 360.923 L 177.966 362.147 198.825 362.244 L 219.684 362.342 219.371 360.549 C 219.198 359.564,219.049 319.691,219.039 271.943 L 219.021 185.130 220.151 184.888 C 222.871 184.307,386.206 184.538,387.331 185.125 C 387.925 185.434,388.984 185.687,389.685 185.687 L 390.960 185.687 390.960 172.693 L 390.960 159.699 389.642 159.699 L 388.324 159.699 388.324 151.977 L 388.324 144.256 387.006 144.256 C 385.938 144.256,385.687 144.113,385.687 143.503 C 385.687 142.867,385.468 142.764,384.275 142.843 C 383.498 142.895,300.532 142.980,199.906 143.032 " stroke="none" fill="#fcfcfc" fill-rule="evenodd"></path><path id="path1" d="M384.024 142.279 C 383.869 142.434,301.171 142.647,200.251 142.751 L 16.761 142.942 198.909 143.034 C 372.248 143.122,386.417 143.068,385.242 142.322 C 384.623 141.930,384.382 141.921,384.024 142.279 M11.676 192.015 C 11.676 197.460,11.803 199.610,12.147 199.980 C 12.529 200.392,12.512 200.431,12.053 200.188 C 11.601 199.949,11.579 199.988,11.945 200.383 C 12.197 200.655,12.790 200.906,13.263 200.940 C 14.118 201.003,14.126 201.055,14.326 207.752 C 14.437 211.464,14.564 214.162,14.609 213.748 C 14.670 213.182,15.004 212.972,15.947 212.905 C 18.580 212.718,19.506 215.358,19.565 223.218 C 19.580 225.205,19.728 225.963,20.131 226.117 C 21.162 226.513,21.884 228.644,22.104 231.940 C 22.296 234.822,22.434 235.309,23.249 235.982 C 24.233 236.793,24.813 238.881,24.842 241.714 C 24.854 242.842,25.017 243.315,25.397 243.315 C 26.577 243.315,27.119 244.449,27.119 246.920 C 27.119 248.599,27.263 249.344,27.589 249.353 C 28.585 249.378,29.540 251.371,29.691 253.737 C 29.832 255.945,29.901 256.093,30.889 256.310 C 32.058 256.566,32.379 257.313,32.387 259.793 C 32.391 261.242,32.480 261.394,33.320 261.394 C 34.527 261.394,35.028 262.380,35.028 264.759 C 35.028 266.536,35.092 266.667,35.957 266.667 C 36.937 266.667,37.665 267.602,37.665 268.862 C 37.665 269.268,38.151 270.121,38.745 270.757 C 39.339 271.392,39.929 272.430,40.055 273.062 C 40.204 273.805,40.605 274.334,41.189 274.556 C 41.690 274.746,42.271 275.412,42.494 276.052 C 42.715 276.686,43.394 277.842,44.003 278.621 C 44.611 279.400,45.219 280.510,45.352 281.087 C 45.496 281.708,45.960 282.275,46.490 282.476 C 47.051 282.689,47.559 283.346,47.854 284.241 C 48.113 285.025,48.808 286.091,49.398 286.608 C 50.067 287.196,50.471 287.923,50.471 288.542 C 50.471 289.338,50.712 289.602,51.695 289.882 C 52.702 290.169,52.940 290.442,53.035 291.420 C 53.131 292.396,53.334 292.631,54.165 292.727 C 54.937 292.816,55.264 293.132,55.534 294.050 C 55.796 294.940,56.139 295.285,56.841 295.368 C 57.534 295.450,57.880 295.791,58.119 296.629 C 58.299 297.261,58.810 297.939,59.254 298.136 C 59.698 298.332,60.259 298.893,60.500 299.381 C 60.741 299.868,61.337 300.467,61.825 300.710 C 62.313 300.953,62.924 301.595,63.184 302.136 C 63.443 302.678,64.062 303.222,64.559 303.347 C 65.117 303.487,65.612 304.006,65.856 304.706 C 66.121 305.465,66.504 305.838,67.019 305.838 C 67.540 305.838,67.963 306.261,68.337 307.156 C 68.697 308.017,69.140 308.475,69.615 308.475 C 70.067 308.475,70.518 308.901,70.810 309.605 C 71.074 310.242,71.561 310.734,71.927 310.734 C 72.629 310.734,73.568 311.655,73.942 312.712 C 74.071 313.074,74.486 313.371,74.866 313.371 C 75.748 313.371,76.460 314.082,76.460 314.962 C 76.460 315.427,76.831 315.724,77.609 315.880 C 78.481 316.054,78.809 316.361,78.967 317.149 C 79.122 317.928,79.453 318.245,80.284 318.411 C 80.895 318.533,82.021 319.227,82.788 319.954 C 83.554 320.680,84.451 321.276,84.782 321.277 C 85.423 321.281,86.629 322.419,86.629 323.021 C 86.629 323.221,87.180 323.547,87.853 323.745 C 88.798 324.023,89.104 324.342,89.196 325.141 C 89.296 326.006,89.496 326.177,90.408 326.177 C 94.058 326.177,95.725 330.037,92.568 331.179 C 92.184 331.318,92.183 331.508,92.564 332.154 C 92.917 332.751,92.925 332.957,92.596 332.957 C 91.962 332.957,92.458 333.365,93.280 333.521 C 93.661 333.593,94.779 333.665,95.763 333.681 C 97.357 333.707,97.552 333.802,97.558 334.557 C 97.568 336.116,97.724 336.186,101.442 336.302 C 102.856 336.346,102.880 336.370,102.626 337.524 C 102.446 338.342,102.495 338.622,102.785 338.443 C 103.014 338.301,103.202 338.325,103.202 338.496 C 103.202 338.667,104.174 338.851,105.362 338.903 C 106.766 338.966,107.722 339.212,108.092 339.609 C 108.406 339.945,108.472 340.114,108.239 339.985 C 107.980 339.841,107.815 340.086,107.815 340.615 C 107.815 341.446,107.915 341.474,110.392 341.337 C 113.056 341.191,113.927 341.874,113.273 343.596 C 113.143 343.939,113.766 344.093,115.551 344.158 C 118.371 344.262,118.361 344.257,118.415 345.687 L 118.456 346.760 120.998 346.604 L 123.540 346.447 123.585 347.706 C 123.610 348.398,123.622 349.053,123.614 349.161 C 123.605 349.270,125.386 349.293,127.573 349.213 C 130.520 349.104,131.478 349.179,131.278 349.503 C 130.420 350.891,132.119 351.789,135.602 351.789 C 138.732 351.789,138.983 351.845,138.983 352.542 C 138.983 352.957,139.195 353.298,139.454 353.301 C 139.768 353.305,139.736 353.429,139.360 353.672 C 139.049 353.873,138.922 354.061,139.077 354.090 C 139.233 354.119,139.529 354.185,139.736 354.237 C 139.944 354.289,142.197 354.353,144.743 354.379 L 149.373 354.426 149.734 355.650 L 150.094 356.874 157.533 356.976 C 162.064 357.038,164.972 357.222,164.972 357.447 C 164.972 357.650,164.961 357.913,164.947 358.032 C 164.817 359.169,166.667 359.627,171.579 359.676 L 176.648 359.727 176.648 272.532 C 176.648 186.711,176.636 185.331,175.919 184.947 C 175.424 184.682,149.071 184.557,93.433 184.557 L 11.676 184.557 11.676 192.015 M220.151 184.888 L 219.021 185.130 218.914 271.190 C 218.856 318.523,218.907 357.810,219.029 358.494 L 219.250 359.737 225.727 359.624 C 231.155 359.529,232.212 359.419,232.254 358.945 C 232.282 358.635,232.324 358.084,232.348 357.721 C 232.388 357.118,232.997 357.062,239.473 357.062 C 244.610 357.062,246.682 356.934,247.021 356.594 C 247.394 356.222,247.567 356.241,247.874 356.689 C 248.160 357.106,248.224 356.887,248.123 355.838 L 247.986 354.426 252.995 354.426 C 255.750 354.426,258.016 354.298,258.032 354.143 C 258.096 353.496,258.405 352.016,258.494 351.926 C 258.547 351.873,260.238 351.799,262.252 351.761 C 264.266 351.724,265.927 351.588,265.945 351.459 C 265.962 351.330,266.018 350.843,266.070 350.377 C 266.122 349.911,266.237 349.457,266.325 349.368 C 266.605 349.088,272.098 349.059,272.769 349.333 C 273.747 349.734,274.200 349.243,274.200 347.786 L 274.200 346.463 277.891 346.584 L 281.581 346.704 281.485 345.480 C 281.381 344.168,281.811 344.032,285.707 344.147 C 286.788 344.180,286.855 344.100,286.837 342.806 L 286.817 341.431 289.360 341.243 C 290.879 341.130,291.971 341.206,292.072 341.431 C 292.165 341.638,292.164 341.267,292.070 340.607 C 291.860 339.131,292.032 339.019,294.681 338.901 C 296.090 338.839,296.798 338.648,296.798 338.330 C 296.798 338.068,296.952 337.853,297.140 337.853 C 297.328 337.853,297.393 337.514,297.284 337.100 C 297.107 336.420,297.285 336.341,299.109 336.289 C 300.220 336.258,301.384 336.215,301.695 336.195 C 302.047 336.172,302.304 335.697,302.378 334.934 C 302.479 333.887,303.097 333.363,303.709 333.804 C 304.069 334.064,305.115 332.738,304.975 332.200 C 304.885 331.858,305.043 331.263,305.325 330.878 C 305.607 330.492,305.838 329.522,305.838 328.722 C 305.838 327.113,307.209 326.177,309.567 326.177 C 310.506 326.177,310.703 326.012,310.804 325.141 C 310.894 324.355,311.203 324.023,312.087 323.762 C 312.852 323.536,313.390 323.051,313.655 322.349 C 313.948 321.574,314.314 321.281,314.986 321.281 C 315.513 321.281,316.510 320.733,317.299 320.011 C 318.061 319.313,319.220 318.588,319.874 318.400 C 320.685 318.168,321.132 317.763,321.281 317.128 C 321.422 316.529,321.808 316.151,322.362 316.072 C 322.922 315.991,323.361 315.555,323.614 314.829 C 323.893 314.027,324.319 313.648,325.120 313.488 C 325.838 313.345,326.361 312.936,326.587 312.342 C 326.780 311.835,327.417 311.238,328.004 311.017 C 328.620 310.784,329.241 310.163,329.474 309.545 C 329.749 308.815,330.142 308.475,330.707 308.475 C 331.633 308.475,339.211 300.993,339.772 299.525 C 339.951 299.056,340.483 298.494,340.953 298.276 C 341.423 298.059,342.062 297.340,342.373 296.680 C 342.718 295.948,343.268 295.433,343.785 295.360 C 344.338 295.281,344.633 294.980,344.633 294.495 C 344.633 294.067,345.101 293.482,345.732 293.119 C 346.392 292.740,346.916 292.067,347.043 291.434 C 347.203 290.633,347.527 290.325,348.391 290.152 C 349.226 289.985,349.531 289.712,349.535 289.124 C 349.543 287.999,349.935 287.537,351.130 287.245 C 351.945 287.045,352.166 286.772,352.167 285.963 C 352.169 284.700,353.465 282.486,354.202 282.486 C 354.501 282.486,354.858 281.960,355.001 281.308 C 355.184 280.476,355.579 280.009,356.349 279.719 C 357.149 279.417,357.442 279.054,357.451 278.354 C 357.463 277.378,358.973 275.330,359.681 275.330 C 359.898 275.330,360.075 274.835,360.075 274.230 C 360.075 272.576,360.441 271.940,361.391 271.940 C 362.123 271.940,362.288 271.683,362.511 270.197 C 362.868 267.817,363.061 267.412,364.014 267.050 C 364.628 266.816,364.957 266.198,365.313 264.608 C 365.669 263.016,366.008 262.378,366.656 262.083 C 367.319 261.781,367.635 261.159,368.001 259.434 C 368.367 257.709,368.683 257.088,369.347 256.785 C 370.009 256.484,370.267 255.979,370.437 254.654 C 370.712 252.508,371.022 251.892,372.065 251.417 C 372.759 251.101,372.881 250.734,372.881 248.962 C 372.881 246.899,374.197 244.068,375.155 244.068 C 375.355 244.068,375.518 243.089,375.518 241.892 C 375.518 239.487,376.233 238.041,377.422 238.041 C 378.091 238.041,378.155 237.758,378.157 234.746 C 378.159 230.618,378.653 228.725,379.872 228.170 C 380.761 227.765,380.791 227.621,380.800 223.763 C 380.811 218.892,381.210 217.015,382.466 215.931 C 383.204 215.295,383.427 214.745,383.427 213.568 C 383.427 212.165,383.524 212.015,384.557 211.808 C 385.676 211.584,385.687 211.557,385.690 209.087 C 385.693 206.796,385.770 206.556,386.632 206.156 C 387.149 205.916,387.477 205.874,387.361 206.062 C 387.244 206.249,387.398 206.403,387.703 206.403 C 388.177 206.403,388.247 204.921,388.196 195.963 L 388.136 185.522 387.194 185.045 C 386.187 184.535,222.521 184.381,220.151 184.888 " stroke="none" fill="#1d9ccc" fill-rule="evenodd"></path><path id="path2" d="M381.733 139.937 L 380.603 140.864 199.623 140.864 C 100.085 140.864,18.263 140.865,17.797 140.866 C 17.200 140.866,16.949 141.090,16.949 141.621 C 16.949 142.375,17.056 142.375,200.094 142.220 C 408.920 142.044,385.758 142.256,385.612 140.524 C 385.463 138.753,383.534 138.461,381.733 139.937 M23.352 246.600 C 23.352 246.819,23.701 247.398,24.128 247.887 L 24.903 248.776 24.242 247.646 C 23.371 246.159,23.352 246.137,23.352 246.600 M56.825 300.450 C 57.061 300.904,57.434 301.387,57.654 301.523 C 58.404 301.987,58.235 301.508,57.315 300.565 C 56.483 299.712,56.437 299.701,56.825 300.450 M59.582 303.169 C 59.669 303.462,60.154 303.960,60.661 304.276 C 61.375 304.721,61.455 304.728,61.017 304.308 C 60.706 304.010,60.221 303.512,59.938 303.202 C 59.524 302.747,59.455 302.740,59.582 303.169 M331.638 311.723 C 330.961 312.299,330.823 312.529,331.293 312.295 C 331.983 311.952,333.278 310.712,332.909 310.748 C 332.831 310.755,332.260 311.194,331.638 311.723 " stroke="none" fill="#444444" fill-rule="evenodd"></path><path id="path3" d="M107.785 142.655 C 157.848 142.708,239.882 142.708,290.082 142.655 C 340.283 142.603,299.322 142.560,199.058 142.560 C 98.795 142.560,57.722 142.603,107.785 142.655 M11.778 200.403 C 11.743 200.866,11.954 201.119,12.359 201.100 C 12.754 201.082,12.816 200.998,12.521 200.880 C 12.261 200.775,12.137 200.546,12.245 200.371 C 12.353 200.195,12.305 199.967,12.137 199.864 C 11.970 199.760,11.808 200.003,11.778 200.403 M383.898 211.926 C 383.633 212.033,383.427 212.767,383.427 213.609 C 383.427 214.742,383.196 215.302,382.466 215.931 C 381.210 217.015,380.811 218.892,380.800 223.763 C 380.791 227.621,380.761 227.765,379.872 228.170 C 378.653 228.725,378.159 230.618,378.157 234.746 C 378.155 237.758,378.091 238.041,377.422 238.041 C 376.233 238.041,375.518 239.487,375.518 241.892 C 375.518 243.089,375.355 244.068,375.155 244.068 C 374.197 244.068,372.881 246.899,372.881 248.962 C 372.881 250.734,372.759 251.101,372.065 251.417 C 371.022 251.892,370.712 252.508,370.437 254.654 C 370.267 255.979,370.009 256.484,369.347 256.785 C 368.683 257.088,368.367 257.709,368.001 259.434 C 367.635 261.159,367.319 261.781,366.656 262.083 C 366.008 262.378,365.669 263.016,365.313 264.608 C 364.957 266.198,364.628 266.816,364.014 267.050 C 363.061 267.412,362.868 267.817,362.511 270.197 C 362.288 271.683,362.123 271.940,361.391 271.940 C 360.441 271.940,360.075 272.576,360.075 274.230 C 360.075 274.835,359.898 275.330,359.681 275.330 C 358.973 275.330,357.463 277.378,357.451 278.354 C 357.442 279.054,357.149 279.417,356.349 279.719 C 355.579 280.009,355.184 280.476,355.001 281.308 C 354.858 281.960,354.501 282.486,354.202 282.486 C 353.465 282.486,352.169 284.700,352.167 285.963 C 352.166 286.772,351.945 287.045,351.130 287.245 C 349.935 287.537,349.543 287.999,349.535 289.124 C 349.531 289.712,349.226 289.985,348.391 290.152 C 347.527 290.325,347.203 290.633,347.043 291.434 C 346.916 292.067,346.392 292.740,345.732 293.119 C 345.101 293.482,344.633 294.067,344.633 294.495 C 344.633 294.980,344.338 295.281,343.785 295.360 C 343.268 295.433,342.718 295.948,342.373 296.680 C 342.062 297.340,341.423 298.059,340.953 298.276 C 340.483 298.494,339.951 299.056,339.772 299.525 C 339.211 300.993,331.633 308.475,330.707 308.475 C 330.142 308.475,329.749 308.815,329.474 309.545 C 329.241 310.163,328.620 310.784,328.004 311.017 C 327.417 311.238,326.780 311.835,326.587 312.342 C 326.361 312.936,325.838 313.345,325.120 313.488 C 324.319 313.648,323.893 314.027,323.614 314.829 C 323.361 315.555,322.922 315.991,322.362 316.072 C 321.808 316.151,321.422 316.529,321.281 317.128 C 321.132 317.763,320.685 318.168,319.874 318.400 C 319.220 318.588,318.061 319.313,317.299 320.011 C 316.510 320.733,315.513 321.281,314.986 321.281 C 314.314 321.281,313.948 321.574,313.655 322.349 C 313.390 323.051,312.852 323.536,312.087 323.762 C 311.203 324.023,310.894 324.355,310.804 325.141 C 310.703 326.012,310.506 326.177,309.567 326.177 C 307.309 326.177,305.838 327.123,305.838 328.575 C 305.838 329.294,305.730 330.162,305.599 330.505 C 305.400 331.022,305.577 331.108,306.635 331.007 C 307.768 330.899,307.923 330.749,308.028 329.661 C 308.099 328.925,308.475 328.205,308.969 327.858 C 309.422 327.540,310.386 326.865,311.111 326.358 C 311.836 325.851,313.342 324.797,314.458 324.017 C 318.800 320.981,319.578 320.376,323.853 316.720 C 325.454 315.350,327.309 313.948,327.977 313.603 C 328.644 313.257,329.190 312.822,329.190 312.635 C 329.190 312.277,329.368 312.097,331.812 309.981 C 334.726 307.458,340.113 302.164,340.113 301.824 C 340.113 301.635,340.621 301.180,341.243 300.813 C 341.864 300.446,342.373 299.913,342.373 299.629 C 342.373 299.345,342.826 298.757,343.380 298.321 C 343.933 297.886,344.572 297.153,344.799 296.693 C 345.025 296.233,345.591 295.689,346.055 295.484 C 346.520 295.278,346.997 294.804,347.116 294.429 C 347.235 294.054,347.799 293.270,348.369 292.686 C 348.939 292.103,349.762 291.049,350.197 290.345 C 350.633 289.641,351.423 288.656,351.954 288.158 C 352.485 287.659,352.919 287.031,352.919 286.763 C 352.919 286.495,353.427 285.899,354.049 285.440 C 354.670 284.980,355.179 284.382,355.179 284.111 C 355.179 283.840,355.742 282.982,356.430 282.204 C 357.117 281.427,357.903 280.233,358.176 279.552 C 358.449 278.870,358.973 278.102,359.341 277.845 C 359.709 277.587,360.321 276.704,360.702 275.882 C 361.082 275.060,361.596 274.218,361.844 274.011 C 362.092 273.804,362.725 272.768,363.251 271.708 C 363.777 270.649,364.463 269.569,364.775 269.310 C 365.087 269.051,365.521 268.179,365.738 267.374 C 365.955 266.568,366.634 265.395,367.247 264.768 C 367.934 264.065,368.362 263.231,368.362 262.594 C 368.362 261.619,369.125 260.159,370.072 259.322 C 370.306 259.115,370.709 258.183,370.967 257.250 C 371.225 256.318,371.828 254.962,372.306 254.237 C 372.785 253.512,373.387 252.002,373.646 250.882 C 373.904 249.761,374.505 248.270,374.982 247.567 C 375.459 246.865,376.058 245.324,376.314 244.143 C 376.570 242.962,377.258 241.083,377.843 239.966 C 378.511 238.692,378.908 237.357,378.908 236.382 C 378.908 235.441,379.337 233.939,379.995 232.574 C 380.753 231.003,381.161 229.440,381.344 227.413 C 381.624 224.306,382.386 220.960,382.980 220.224 C 383.180 219.976,383.460 218.842,383.604 217.702 C 384.001 214.546,384.548 212.667,385.222 212.147 C 385.878 211.640,384.979 211.490,383.898 211.926 M14.690 213.626 C 14.690 213.974,15.113 214.591,15.631 214.999 C 16.149 215.406,16.574 215.884,16.575 216.062 C 16.576 216.239,16.826 216.861,17.129 217.443 C 17.840 218.805,18.832 223.605,18.834 225.690 C 18.835 226.729,19.238 228.115,19.962 229.567 C 20.582 230.810,21.092 232.420,21.095 233.145 C 21.104 234.978,22.031 238.281,22.736 238.985 C 23.058 239.308,23.427 240.202,23.555 240.973 C 23.896 243.028,24.781 245.614,25.376 246.296 C 25.662 246.624,26.150 247.913,26.460 249.161 C 26.771 250.408,27.449 252.055,27.969 252.820 C 28.488 253.586,29.029 254.827,29.170 255.579 C 29.311 256.331,29.905 257.607,30.490 258.415 C 31.075 259.222,31.658 260.435,31.785 261.109 C 31.912 261.784,32.524 262.928,33.145 263.653 C 33.765 264.379,34.274 265.340,34.274 265.790 C 34.275 266.241,34.686 267.098,35.189 267.696 C 35.692 268.294,36.531 269.747,37.052 270.926 C 37.573 272.105,38.137 273.070,38.305 273.070 C 38.473 273.070,38.982 273.878,39.435 274.867 C 39.889 275.855,40.693 277.041,41.222 277.501 C 41.752 277.961,42.185 278.636,42.185 279.001 C 42.185 279.365,42.681 280.132,43.287 280.704 C 43.894 281.277,44.580 282.322,44.813 283.026 C 45.046 283.731,45.638 284.571,46.130 284.893 C 46.622 285.215,47.142 285.865,47.287 286.336 C 47.432 286.808,48.131 287.787,48.840 288.512 C 50.720 290.433,51.352 291.182,52.337 292.655 C 52.821 293.380,53.700 294.482,54.290 295.104 C 57.260 298.234,58.004 299.122,58.006 299.542 C 58.007 299.794,58.516 300.289,59.136 300.642 C 59.756 300.995,60.454 301.701,60.686 302.211 C 60.919 302.720,61.426 303.221,61.813 303.322 C 62.200 303.423,62.803 304.003,63.151 304.611 C 63.500 305.219,64.137 305.871,64.565 306.060 C 64.994 306.249,65.567 306.869,65.838 307.439 C 66.109 308.008,66.584 308.475,66.893 308.475 C 67.202 308.475,67.744 308.982,68.097 309.602 C 68.450 310.222,68.868 310.731,69.026 310.732 C 69.184 310.733,69.946 311.322,70.720 312.041 C 72.269 313.479,77.773 317.986,79.548 319.270 C 80.168 319.719,80.922 320.439,81.225 320.871 C 81.528 321.304,82.008 321.657,82.292 321.657 C 82.576 321.657,83.123 322.058,83.508 322.548 C 83.894 323.038,84.796 323.740,85.513 324.110 C 86.230 324.479,87.483 325.349,88.298 326.044 C 89.112 326.739,89.975 327.307,90.217 327.307 C 90.934 327.307,91.830 328.547,91.965 329.726 C 92.210 331.871,94.162 330.931,94.162 328.668 C 94.162 327.292,92.482 326.177,90.408 326.177 C 89.496 326.177,89.296 326.006,89.196 325.141 C 89.104 324.342,88.798 324.023,87.853 323.745 C 87.180 323.547,86.629 323.192,86.629 322.956 C 86.629 322.377,85.380 321.281,84.716 321.277 C 84.422 321.276,83.554 320.680,82.788 319.954 C 82.021 319.227,80.895 318.533,80.284 318.411 C 79.453 318.245,79.122 317.928,78.967 317.149 C 78.809 316.361,78.481 316.054,77.609 315.880 C 76.831 315.724,76.460 315.427,76.460 314.962 C 76.460 314.082,75.748 313.371,74.866 313.371 C 74.486 313.371,74.071 313.074,73.942 312.712 C 73.568 311.655,72.629 310.734,71.927 310.734 C 71.561 310.734,71.074 310.242,70.810 309.605 C 70.518 308.901,70.067 308.475,69.615 308.475 C 69.140 308.475,68.697 308.017,68.337 307.156 C 67.963 306.261,67.540 305.838,67.019 305.838 C 66.504 305.838,66.121 305.465,65.856 304.706 C 65.612 304.006,65.117 303.487,64.559 303.347 C 64.062 303.222,63.443 302.678,63.184 302.136 C 62.924 301.595,62.313 300.953,61.825 300.710 C 61.337 300.467,60.741 299.868,60.500 299.381 C 60.259 298.893,59.698 298.332,59.254 298.136 C 58.810 297.939,58.299 297.261,58.119 296.629 C 57.880 295.791,57.534 295.450,56.841 295.368 C 56.139 295.285,55.796 294.940,55.534 294.050 C 55.264 293.132,54.937 292.816,54.165 292.727 C 53.334 292.631,53.131 292.396,53.035 291.420 C 52.940 290.442,52.702 290.169,51.695 289.882 C 50.712 289.602,50.471 289.338,50.471 288.542 C 50.471 287.923,50.067 287.196,49.398 286.608 C 48.808 286.091,48.113 285.025,47.854 284.241 C 47.559 283.346,47.051 282.689,46.490 282.476 C 45.960 282.275,45.496 281.708,45.352 281.087 C 45.219 280.510,44.611 279.400,44.003 278.621 C 43.394 277.842,42.715 276.686,42.494 276.052 C 42.271 275.412,41.690 274.746,41.189 274.556 C 40.605 274.334,40.204 273.805,40.055 273.062 C 39.929 272.430,39.339 271.392,38.745 270.757 C 38.151 270.121,37.665 269.268,37.665 268.862 C 37.665 267.602,36.937 266.667,35.957 266.667 C 35.092 266.667,35.028 266.536,35.028 264.759 C 35.028 262.380,34.527 261.394,33.320 261.394 C 32.480 261.394,32.391 261.242,32.387 259.793 C 32.379 257.313,32.058 256.566,30.889 256.310 C 29.901 256.093,29.832 255.945,29.691 253.737 C 29.540 251.371,28.585 249.378,27.589 249.353 C 27.263 249.344,27.119 248.599,27.119 246.920 C 27.119 244.449,26.577 243.315,25.397 243.315 C 25.017 243.315,24.854 242.842,24.842 241.714 C 24.813 238.881,24.233 236.793,23.249 235.982 C 22.434 235.309,22.296 234.822,22.104 231.940 C 21.884 228.644,21.162 226.513,20.131 226.117 C 19.728 225.963,19.580 225.205,19.565 223.218 C 19.506 215.358,18.580 212.718,15.947 212.905 C 15.058 212.968,14.691 213.179,14.690 213.626 M291.714 340.866 C 291.586 341.073,290.484 341.243,289.266 341.243 C 288.047 341.243,286.971 341.370,286.874 341.525 C 286.778 341.681,287.856 341.752,289.271 341.684 C 291.059 341.598,291.907 341.397,292.050 341.025 C 292.285 340.411,292.061 340.305,291.714 340.866 M110.640 341.509 C 111.106 341.599,111.869 341.599,112.335 341.509 C 112.801 341.419,112.420 341.346,111.488 341.346 C 110.556 341.346,110.174 341.419,110.640 341.509 M113.123 342.909 C 113.157 343.530,113.429 344.076,113.748 344.162 C 114.125 344.263,114.169 344.210,113.880 344.002 C 113.642 343.831,113.361 343.267,113.255 342.750 C 113.090 341.939,113.071 341.961,113.123 342.909 M281.356 345.862 C 281.356 346.193,280.975 346.537,280.508 346.627 L 279.661 346.790 280.520 346.841 C 281.348 346.891,282.074 345.978,281.591 345.495 C 281.462 345.366,281.356 345.531,281.356 345.862 M121.186 346.782 C 121.653 346.872,122.415 346.872,122.881 346.782 C 123.347 346.692,122.966 346.619,122.034 346.619 C 121.102 346.619,120.720 346.692,121.186 346.782 M275.424 346.790 C 276.201 346.872,277.472 346.872,278.249 346.790 C 279.025 346.709,278.390 346.643,276.836 346.643 C 275.282 346.643,274.647 346.709,275.424 346.790 M269.115 349.163 L 266.102 349.412 269.388 349.420 C 271.196 349.424,272.584 349.281,272.473 349.102 C 272.362 348.922,272.240 348.807,272.200 348.845 C 272.160 348.883,270.772 349.026,269.115 349.163 M126.659 349.430 C 127.649 349.508,129.175 349.507,130.049 349.428 C 130.923 349.349,130.113 349.285,128.249 349.286 C 126.384 349.287,125.669 349.352,126.659 349.430 M131.073 350.753 C 131.073 351.091,131.254 351.480,131.475 351.616 C 132.121 352.015,132.184 351.658,131.608 350.869 C 131.161 350.258,131.073 350.239,131.073 350.753 M231.523 358.865 C 230.961 359.486,230.965 359.537,231.572 359.537 C 231.953 359.537,232.230 359.254,232.230 358.865 C 232.230 358.495,232.208 358.192,232.181 358.192 C 232.154 358.192,231.858 358.495,231.523 358.865 M165.212 359.134 C 165.331 359.444,165.677 359.699,165.981 359.699 C 166.459 359.699,166.457 359.624,165.967 359.134 C 165.656 358.823,165.311 358.569,165.199 358.569 C 165.087 358.569,165.093 358.823,165.212 359.134 " stroke="none" fill="#148cc4" fill-rule="evenodd"></path><path id="path4" d="M384.538 213.045 C 384.331 213.590,383.974 215.327,383.745 216.905 C 383.516 218.483,383.169 219.976,382.973 220.224 C 382.383 220.969,381.622 224.326,381.344 227.413 C 381.161 229.440,380.753 231.003,379.995 232.574 C 379.337 233.939,378.908 235.441,378.908 236.382 C 378.908 237.357,378.511 238.692,377.843 239.966 C 377.258 241.083,376.570 242.962,376.314 244.143 C 376.058 245.324,375.459 246.865,374.982 247.567 C 374.505 248.270,373.904 249.761,373.646 250.882 C 373.387 252.002,372.785 253.512,372.306 254.237 C 371.828 254.962,371.225 256.318,370.967 257.250 C 370.709 258.183,370.306 259.115,370.072 259.322 C 369.125 260.159,368.362 261.619,368.362 262.594 C 368.362 263.231,367.934 264.065,367.247 264.768 C 366.634 265.395,365.955 266.568,365.738 267.374 C 365.521 268.179,365.087 269.051,364.775 269.310 C 364.463 269.569,363.777 270.649,363.251 271.708 C 362.725 272.768,362.092 273.804,361.844 274.011 C 361.596 274.218,361.082 275.060,360.702 275.882 C 360.321 276.704,359.709 277.587,359.341 277.845 C 358.973 278.102,358.449 278.870,358.176 279.552 C 357.903 280.233,357.117 281.427,356.430 282.204 C 355.742 282.982,355.179 283.840,355.179 284.111 C 355.179 284.382,354.670 284.980,354.049 285.440 C 353.427 285.899,352.919 286.495,352.919 286.763 C 352.919 287.031,352.485 287.659,351.954 288.158 C 351.423 288.656,350.633 289.641,350.197 290.345 C 349.762 291.049,348.939 292.103,348.369 292.686 C 347.799 293.270,347.235 294.054,347.116 294.429 C 346.997 294.804,346.520 295.278,346.055 295.484 C 345.591 295.689,345.025 296.233,344.799 296.693 C 344.572 297.153,343.933 297.886,343.380 298.321 C 342.826 298.757,342.373 299.345,342.373 299.629 C 342.373 299.913,341.864 300.446,341.243 300.813 C 340.621 301.180,340.113 301.635,340.113 301.824 C 340.113 302.164,334.726 307.458,331.812 309.981 C 329.368 312.097,329.190 312.277,329.190 312.635 C 329.190 312.822,328.644 313.257,327.977 313.603 C 327.309 313.948,325.454 315.350,323.853 316.720 C 319.578 320.376,318.800 320.981,314.458 324.017 C 313.342 324.797,311.836 325.851,311.111 326.358 C 310.386 326.865,309.431 327.533,308.988 327.843 C 308.503 328.183,308.122 328.934,308.029 329.734 L 307.874 331.061 308.739 330.248 C 309.215 329.801,309.605 329.243,309.605 329.009 C 309.605 328.774,310.325 328.269,311.205 327.887 C 312.086 327.504,313.430 326.666,314.193 326.025 C 314.955 325.384,316.285 324.350,317.147 323.729 C 318.010 323.107,319.319 322.048,320.056 321.375 C 320.793 320.702,321.582 320.149,321.809 320.147 C 322.036 320.145,323.154 319.335,324.294 318.345 C 325.433 317.356,326.857 316.129,327.459 315.618 C 328.060 315.107,329.732 313.545,331.175 312.147 C 332.618 310.749,333.943 309.605,334.119 309.605 C 334.545 309.605,343.126 300.948,343.126 300.518 C 343.126 300.334,344.313 299.022,345.763 297.603 C 347.213 296.184,348.399 294.906,348.399 294.763 C 348.399 294.620,348.839 294.095,349.376 293.598 C 349.913 293.100,350.847 291.964,351.452 291.073 C 353.262 288.406,354.420 286.871,355.390 285.855 C 355.896 285.326,356.309 284.732,356.309 284.536 C 356.309 284.339,356.784 283.730,357.364 283.182 C 357.945 282.634,358.733 281.491,359.116 280.641 C 359.500 279.791,359.954 279.096,360.126 279.096 C 360.298 279.096,360.863 278.261,361.380 277.239 C 361.898 276.218,362.511 275.265,362.743 275.122 C 362.976 274.978,363.532 274.070,363.980 273.103 C 364.428 272.136,365.137 270.978,365.555 270.529 C 365.973 270.080,366.541 269.070,366.818 268.284 C 367.095 267.498,367.635 266.511,368.017 266.091 C 368.400 265.671,368.969 264.600,369.283 263.712 C 369.596 262.824,370.210 261.595,370.647 260.981 C 371.084 260.368,371.598 259.297,371.790 258.603 C 371.982 257.908,372.525 256.769,372.996 256.071 C 373.468 255.373,374.163 253.656,374.541 252.254 C 374.919 250.853,375.464 249.574,375.752 249.413 C 376.040 249.252,376.625 247.856,377.050 246.311 C 377.476 244.767,378.078 243.114,378.387 242.638 C 378.695 242.162,379.253 240.382,379.624 238.683 C 379.996 236.984,380.662 234.886,381.103 234.022 C 381.567 233.114,382.058 231.126,382.267 229.314 C 382.465 227.589,383.062 225.029,383.592 223.626 C 384.123 222.223,384.563 220.274,384.571 219.295 C 384.578 218.315,384.826 216.412,385.122 215.066 C 385.779 212.080,385.781 212.053,385.301 212.053 C 385.089 212.053,384.746 212.499,384.538 213.045 M14.825 215.348 C 15.117 215.918,15.565 217.401,15.821 218.644 C 16.076 219.887,16.604 221.715,16.994 222.707 C 17.384 223.699,17.702 225.061,17.702 225.735 C 17.702 227.233,18.627 231.043,19.364 232.580 C 19.662 233.202,20.187 235.039,20.532 236.664 C 20.877 238.289,21.477 240.156,21.864 240.813 C 22.252 241.470,22.768 242.934,23.010 244.066 C 23.253 245.198,23.921 247.060,24.494 248.204 C 25.067 249.347,25.651 250.876,25.793 251.601 C 25.935 252.326,26.522 253.597,27.097 254.426 C 27.672 255.254,28.255 256.549,28.393 257.302 C 28.531 258.056,29.024 259.073,29.490 259.562 C 29.956 260.052,30.657 261.427,31.049 262.618 C 31.440 263.809,31.911 264.783,32.095 264.783 C 32.280 264.783,32.688 265.419,33.003 266.196 C 34.209 269.168,34.468 269.680,34.764 269.680 C 34.932 269.680,35.490 270.630,36.003 271.791 C 36.517 272.952,37.191 274.156,37.502 274.467 C 37.812 274.777,38.387 275.661,38.780 276.430 C 39.172 277.199,39.769 278.058,40.107 278.338 C 40.445 278.618,40.951 279.397,41.232 280.069 C 41.512 280.740,42.087 281.635,42.508 282.056 C 42.930 282.478,43.521 283.298,43.822 283.878 C 44.122 284.459,44.767 285.385,45.254 285.935 C 45.741 286.486,46.817 287.805,47.646 288.867 C 48.475 289.928,49.703 291.427,50.375 292.197 C 51.047 292.967,51.598 293.734,51.599 293.902 C 51.600 294.069,52.178 294.832,52.883 295.596 C 53.589 296.361,54.817 297.722,55.614 298.621 C 56.814 299.975,68.480 311.642,72.505 315.513 C 73.126 316.111,74.270 316.989,75.047 317.465 C 75.824 317.940,76.460 318.451,76.460 318.600 C 76.460 318.749,77.180 319.326,78.061 319.883 C 78.942 320.440,79.876 321.236,80.136 321.653 C 80.396 322.070,80.799 322.411,81.031 322.411 C 81.263 322.411,82.109 322.961,82.911 323.635 C 86.677 326.797,87.292 327.257,88.713 327.976 C 89.548 328.399,90.462 329.175,90.743 329.701 C 91.523 331.158,92.167 331.215,91.974 329.810 C 91.799 328.540,90.933 327.307,90.217 327.307 C 89.975 327.307,89.112 326.739,88.298 326.044 C 87.483 325.349,86.230 324.479,85.513 324.110 C 84.796 323.740,83.894 323.038,83.508 322.548 C 83.123 322.058,82.576 321.657,82.292 321.657 C 82.008 321.657,81.528 321.304,81.225 320.871 C 80.922 320.439,80.168 319.719,79.548 319.270 C 77.773 317.986,72.269 313.479,70.720 312.041 C 69.946 311.322,69.184 310.733,69.026 310.732 C 68.868 310.731,68.450 310.222,68.097 309.602 C 67.744 308.982,67.202 308.475,66.893 308.475 C 66.584 308.475,66.109 308.008,65.838 307.439 C 65.567 306.869,64.994 306.249,64.565 306.060 C 64.137 305.871,63.500 305.219,63.151 304.611 C 62.803 304.003,62.200 303.423,61.813 303.322 C 61.426 303.221,60.919 302.720,60.686 302.211 C 60.454 301.701,59.756 300.995,59.136 300.642 C 58.516 300.289,58.007 299.794,58.006 299.542 C 58.004 299.122,57.260 298.234,54.290 295.104 C 53.700 294.482,52.821 293.380,52.337 292.655 C 51.352 291.182,50.720 290.433,48.840 288.512 C 48.131 287.787,47.432 286.808,47.287 286.336 C 47.142 285.865,46.622 285.215,46.130 284.893 C 45.638 284.571,45.046 283.731,44.813 283.026 C 44.580 282.322,43.894 281.277,43.287 280.704 C 42.681 280.132,42.185 279.365,42.185 279.001 C 42.185 278.636,41.752 277.961,41.222 277.501 C 40.693 277.041,39.889 275.855,39.435 274.867 C 38.982 273.878,38.473 273.070,38.305 273.070 C 38.137 273.070,37.573 272.105,37.052 270.926 C 36.531 269.747,35.692 268.294,35.189 267.696 C 34.686 267.098,34.275 266.241,34.274 265.790 C 34.274 265.340,33.765 264.379,33.145 263.653 C 32.524 262.928,31.912 261.784,31.785 261.109 C 31.658 260.435,31.075 259.222,30.490 258.415 C 29.905 257.607,29.311 256.331,29.170 255.579 C 29.029 254.827,28.488 253.586,27.969 252.820 C 27.449 252.055,26.771 250.408,26.460 249.161 C 26.150 247.913,25.662 246.624,25.376 246.296 C 24.781 245.614,23.896 243.028,23.555 240.973 C 23.427 240.202,23.058 239.308,22.736 238.985 C 22.031 238.281,21.104 234.978,21.095 233.145 C 21.092 232.420,20.582 230.810,19.962 229.567 C 19.238 228.115,18.835 226.729,18.834 225.690 C 18.832 223.605,17.840 218.805,17.129 217.443 C 16.826 216.861,16.576 216.242,16.575 216.068 C 16.572 215.703,15.021 214.344,14.585 214.325 C 14.425 214.318,14.533 214.779,14.825 215.348 " stroke="none" fill="#0c546c" fill-rule="evenodd"></path><path id="path5" d="M30.226 1.379 C 29.894 1.513,29.755 2.669,29.755 5.304 L 29.755 9.040 31.073 9.040 L 32.392 9.040 32.392 12.994 L 32.392 16.949 33.693 16.949 L 34.994 16.949 35.105 19.492 L 35.217 22.034 36.441 22.152 L 37.665 22.270 37.665 24.694 L 37.665 27.119 38.983 27.119 L 40.301 27.119 40.301 31.073 L 40.301 35.028 41.620 35.028 L 42.938 35.028 42.938 37.665 L 42.938 40.301 44.256 40.301 L 45.574 40.301 45.574 42.938 L 45.574 45.574 46.893 45.574 L 48.211 45.574 48.211 49.341 L 48.211 53.107 49.341 53.107 C 50.437 53.107,50.471 53.161,50.476 54.896 C 50.484 57.733,50.771 58.380,52.021 58.380 L 53.107 58.380 53.107 62.335 L 53.107 66.290 51.994 66.290 C 51.021 66.290,50.851 66.455,50.634 67.608 C 50.419 68.754,50.244 68.927,49.299 68.927 C 48.307 68.927,48.211 69.042,48.211 70.245 C 48.211 71.500,48.148 71.563,46.893 71.563 L 45.574 71.563 45.574 73.987 L 45.574 76.412 44.350 76.530 C 43.274 76.634,43.112 76.796,43.008 77.872 C 42.900 78.993,42.781 79.096,41.596 79.096 L 40.301 79.096 40.301 81.733 L 40.301 84.369 38.983 84.369 C 37.728 84.369,37.665 84.432,37.665 85.687 C 37.665 86.943,37.602 87.006,36.347 87.006 L 35.028 87.006 35.028 89.642 L 35.028 92.279 33.710 92.279 L 32.392 92.279 32.392 94.915 L 32.392 97.552 31.073 97.552 L 29.755 97.552 29.755 100.000 C 29.755 102.304,29.704 102.448,28.889 102.448 C 27.536 102.448,27.119 103.176,27.119 105.537 C 27.119 107.713,27.114 107.721,25.989 107.721 L 24.859 107.721 24.859 110.358 L 24.859 112.994 23.540 112.994 L 22.222 112.994 22.222 116.949 L 22.222 120.904 20.904 120.904 L 19.586 120.904 19.586 128.625 L 19.586 136.347 18.267 136.347 C 16.981 136.347,16.949 136.382,16.949 137.853 L 16.949 139.360 198.588 139.356 C 298.489 139.353,380.862 139.246,381.638 139.118 L 383.051 138.884 383.051 134.979 L 383.051 131.073 381.733 131.073 L 380.414 131.073 380.414 125.989 L 380.414 120.904 379.096 120.904 L 377.778 120.904 377.778 116.949 L 377.778 112.994 376.460 112.994 L 375.141 112.994 375.141 110.358 L 375.141 107.721 374.011 107.721 L 372.881 107.721 372.881 105.313 C 372.881 102.804,372.643 102.448,370.967 102.448 C 370.329 102.448,370.245 102.162,370.245 100.000 L 370.245 97.552 368.927 97.552 L 367.608 97.552 367.608 94.915 L 367.608 92.279 366.290 92.279 L 364.972 92.279 364.972 89.642 L 364.972 87.006 363.653 87.006 C 362.398 87.006,362.335 86.943,362.335 85.687 C 362.335 84.432,362.272 84.369,361.017 84.369 L 359.699 84.369 359.699 81.733 L 359.699 79.096 358.380 79.096 C 357.178 79.096,357.062 79.001,357.062 78.006 C 357.062 76.898,356.519 76.460,355.148 76.460 C 354.510 76.460,354.426 76.174,354.426 74.011 L 354.426 71.563 353.107 71.563 C 351.852 71.563,351.789 71.500,351.789 70.245 C 351.789 69.037,351.696 68.927,350.683 68.927 C 349.710 68.927,349.563 68.779,349.459 67.702 C 349.356 66.631,349.191 66.464,348.139 66.362 C 347.092 66.261,346.922 66.090,346.821 65.044 C 346.719 63.992,346.551 63.827,345.480 63.724 L 344.256 63.606 344.256 60.993 L 344.256 58.380 345.574 58.380 L 346.893 58.380 346.893 55.744 L 346.893 53.107 348.211 53.107 L 349.529 53.107 349.529 50.659 L 349.529 48.211 350.659 48.211 L 351.789 48.211 351.789 44.256 L 351.789 40.301 353.107 40.301 L 354.426 40.301 354.426 37.665 L 354.426 35.028 355.744 35.028 L 357.062 35.028 357.062 32.392 L 357.062 29.755 358.380 29.755 L 359.699 29.755 359.699 25.989 L 359.699 22.222 361.017 22.222 L 362.335 22.222 362.335 19.586 L 362.335 16.949 363.653 16.949 L 364.972 16.949 364.972 14.313 L 364.972 11.676 366.290 11.676 L 367.608 11.676 367.608 6.632 C 367.608 2.379,367.515 1.551,367.013 1.359 C 366.685 1.233,349.411 1.130,328.625 1.130 C 307.840 1.130,290.566 1.233,290.238 1.359 C 289.781 1.534,289.642 2.147,289.642 3.995 L 289.642 6.403 288.324 6.403 L 287.006 6.403 287.006 9.040 L 287.006 11.676 285.687 11.676 L 284.369 11.676 284.369 14.313 L 284.369 16.949 283.051 16.949 C 281.795 16.949,281.733 16.886,281.733 15.631 L 281.733 14.313 277.990 14.313 L 274.247 14.313 274.129 13.089 L 274.011 11.864 270.151 11.757 L 266.290 11.650 266.290 10.345 L 266.290 9.040 262.335 9.040 L 258.380 9.040 258.380 7.721 L 258.380 6.403 253.320 6.403 L 248.259 6.403 248.141 5.179 L 248.023 3.955 240.207 3.853 L 232.392 3.751 232.392 2.636 C 232.392 1.040,233.749 1.100,200.565 1.215 L 170.433 1.318 170.316 2.535 L 170.198 3.751 162.406 3.853 L 154.614 3.955 154.496 5.179 L 154.378 6.403 149.317 6.403 L 144.256 6.403 144.256 7.721 L 144.256 9.040 138.983 9.040 L 133.710 9.040 133.710 10.358 L 133.710 11.676 129.961 11.676 L 126.211 11.676 125.964 12.994 L 125.717 14.313 123.310 14.313 L 120.904 14.313 120.904 15.631 L 120.904 16.949 116.949 16.949 L 112.994 16.949 112.994 14.313 L 112.994 11.676 111.676 11.676 L 110.358 11.676 110.358 7.721 L 110.358 3.766 109.040 3.766 C 107.837 3.766,107.721 3.671,107.721 2.677 C 107.721 2.031,107.479 1.494,107.126 1.359 C 106.413 1.085,30.904 1.106,30.226 1.379 M0.000 249.341 L 0.000 284.369 16.196 284.369 L 32.392 284.369 32.392 285.664 C 32.392 286.849,32.288 286.968,31.168 287.076 C 30.097 287.179,29.929 287.344,29.827 288.396 C 29.726 289.442,29.555 289.613,28.509 289.714 C 27.457 289.816,27.292 289.984,27.189 291.055 C 27.085 292.131,26.937 292.279,25.965 292.279 C 24.952 292.279,24.859 292.390,24.859 293.597 C 24.859 294.852,24.796 294.915,23.540 294.915 C 22.285 294.915,22.222 294.978,22.222 296.234 C 22.222 297.489,22.159 297.552,20.904 297.552 C 19.648 297.552,19.586 297.615,19.586 298.870 C 19.586 300.126,19.523 300.188,18.267 300.188 C 17.054 300.188,16.949 300.278,16.949 301.318 C 16.949 302.181,16.778 302.448,16.227 302.448 C 14.866 302.448,14.313 302.888,14.313 303.971 C 14.313 304.898,14.153 305.052,13.089 305.155 L 11.864 305.273 11.757 309.134 L 11.650 312.994 12.981 312.994 C 14.252 312.994,14.313 313.055,14.313 314.313 C 14.313 315.568,14.375 315.631,15.631 315.631 C 16.886 315.631,16.949 315.694,16.949 316.949 C 16.949 318.205,17.012 318.267,18.267 318.267 C 19.523 318.267,19.586 318.330,19.586 319.586 C 19.586 320.841,19.648 320.904,20.904 320.904 C 22.159 320.904,22.222 320.967,22.222 322.222 C 22.222 323.478,22.285 323.540,23.540 323.540 C 24.796 323.540,24.859 323.603,24.859 324.859 C 24.859 326.066,24.952 326.177,25.964 326.177 C 26.889 326.177,27.088 326.345,27.188 327.213 C 27.287 328.076,27.511 328.268,28.531 328.367 C 29.652 328.475,29.755 328.594,29.755 329.779 C 29.755 331.007,29.823 331.073,31.073 331.073 C 32.329 331.073,32.392 331.136,32.392 332.392 C 32.392 333.647,32.454 333.710,33.710 333.710 C 34.965 333.710,35.028 333.773,35.028 335.028 C 35.028 336.284,35.091 336.347,36.347 336.347 C 37.602 336.347,37.665 336.409,37.665 337.665 C 37.665 338.920,37.728 338.983,38.983 338.983 L 40.301 338.983 40.301 341.620 L 40.301 344.256 41.620 344.256 C 42.875 344.256,42.938 344.319,42.938 345.574 C 42.938 346.825,43.004 346.893,44.232 346.893 C 45.417 346.893,45.537 346.996,45.645 348.117 C 45.748 349.193,45.910 349.355,46.987 349.459 C 48.063 349.563,48.211 349.710,48.211 350.683 C 48.211 351.651,48.346 351.789,49.299 351.789 C 50.244 351.789,50.419 351.962,50.634 353.107 C 50.851 354.261,51.021 354.426,51.994 354.426 C 53.015 354.426,53.107 354.535,53.107 355.744 C 53.107 356.999,53.170 357.062,54.426 357.062 C 55.681 357.062,55.744 357.125,55.744 358.380 L 55.744 359.699 59.699 359.699 L 63.653 359.699 63.653 358.380 C 63.653 357.125,63.716 357.062,64.972 357.062 C 66.227 357.062,66.290 356.999,66.290 355.744 C 66.290 354.488,66.353 354.426,67.608 354.426 C 68.864 354.426,68.927 354.363,68.927 353.107 C 68.927 351.852,68.989 351.789,70.245 351.789 C 71.452 351.789,71.563 351.696,71.563 350.683 C 71.563 349.710,71.711 349.563,72.787 349.459 C 73.864 349.355,74.026 349.193,74.129 348.117 C 74.233 347.040,74.381 346.893,75.353 346.893 C 76.366 346.893,76.460 346.782,76.460 345.574 C 76.460 344.319,76.522 344.256,77.778 344.256 C 79.033 344.256,79.096 344.193,79.096 342.938 L 79.096 341.620 81.733 341.620 L 84.369 341.620 84.369 340.301 C 84.369 339.046,84.432 338.983,85.687 338.983 C 86.943 338.983,87.006 338.920,87.006 337.665 C 87.006 336.409,87.068 336.347,88.324 336.347 C 89.579 336.347,89.642 336.284,89.642 335.028 C 89.642 333.773,89.705 333.710,90.960 333.710 C 92.216 333.710,92.279 333.647,92.279 332.392 C 92.279 331.255,92.155 331.073,91.384 331.073 C 89.214 331.073,88.028 330.585,87.629 329.527 C 87.331 328.738,86.943 328.445,86.082 328.361 C 85.168 328.271,84.911 328.053,84.822 327.286 C 84.731 326.503,84.408 326.243,83.088 325.890 C 82.196 325.651,81.060 325.018,80.564 324.484 C 80.067 323.949,79.124 323.278,78.467 322.993 C 77.702 322.660,77.229 322.159,77.149 321.595 C 77.057 320.944,76.744 320.684,75.945 320.592 C 75.147 320.501,74.754 320.175,74.439 319.340 C 74.154 318.584,73.684 318.145,73.016 318.012 C 72.299 317.868,71.959 317.518,71.809 316.767 C 71.659 316.017,71.302 315.648,70.546 315.461 C 69.966 315.318,69.035 314.704,68.477 314.097 C 67.919 313.491,67.382 312.994,67.283 312.994 C 67.110 312.994,64.969 310.820,63.183 308.830 C 62.707 308.301,62.026 307.755,61.668 307.618 C 61.310 307.481,61.017 307.193,61.017 306.980 C 61.017 306.482,59.628 305.085,59.134 305.085 C 58.927 305.085,58.754 304.873,58.751 304.614 C 58.743 304.040,57.117 302.448,56.538 302.448 C 56.309 302.448,56.121 302.264,56.121 302.039 C 56.121 301.815,55.527 301.105,54.802 300.464 C 54.072 299.817,53.484 298.938,53.484 298.492 C 53.484 297.946,53.091 297.515,52.260 297.149 C 51.393 296.767,51.002 296.321,50.921 295.617 C 50.834 294.867,50.543 294.572,49.730 294.409 C 48.912 294.246,48.594 293.920,48.403 293.048 C 48.264 292.418,47.937 291.902,47.674 291.902 C 47.016 291.902,46.097 290.774,45.828 289.634 C 45.704 289.112,45.100 288.170,44.484 287.540 C 43.868 286.910,43.259 285.973,43.129 285.456 C 42.985 284.881,42.465 284.356,41.786 284.099 C 40.990 283.799,40.678 283.430,40.678 282.791 C 40.678 282.276,40.209 281.489,39.566 280.925 C 38.872 280.316,38.289 279.292,38.015 278.204 C 37.710 276.995,37.381 276.460,36.942 276.460 C 35.980 276.460,35.405 275.684,35.405 274.387 C 35.405 273.545,35.036 272.860,34.087 271.940 C 33.104 270.987,32.768 270.345,32.768 269.418 C 32.768 268.626,32.584 268.173,32.262 268.173 C 31.344 268.173,30.423 266.726,30.225 264.973 C 30.095 263.818,29.800 263.126,29.332 262.875 C 28.393 262.373,27.495 260.560,27.495 259.166 C 27.495 258.418,27.240 257.893,26.746 257.629 C 25.674 257.055,24.859 255.273,24.859 253.503 C 24.859 252.664,24.712 251.977,24.533 251.977 C 23.570 251.977,22.222 249.055,22.222 246.967 C 22.222 245.327,22.091 244.821,21.667 244.821 C 20.774 244.821,20.062 242.962,19.774 239.873 C 19.542 237.392,19.388 236.943,18.657 236.609 C 17.663 236.156,17.435 235.240,17.086 230.272 C 16.908 227.739,16.679 226.615,16.312 226.474 C 15.185 226.041,14.694 224.136,14.446 219.233 L 14.197 214.313 7.098 214.313 L 0.000 214.313 0.000 249.341 M388.209 215.087 C 388.098 215.514,387.485 216.059,386.847 216.300 L 385.687 216.738 385.678 220.892 C 385.668 225.880,385.277 227.798,384.060 228.849 C 383.236 229.560,383.130 229.995,382.987 233.271 C 382.836 236.724,382.770 236.967,381.659 238.132 C 380.613 239.230,380.474 239.648,380.346 242.082 C 380.216 244.544,380.087 244.923,378.990 246.054 C 377.938 247.140,377.778 247.566,377.778 249.282 C 377.778 251.237,376.681 253.107,375.535 253.107 C 375.306 253.107,375.141 254.032,375.141 255.322 C 375.141 257.409,375.079 257.562,374.051 257.987 C 373.092 258.385,372.930 258.688,372.701 260.517 C 372.483 262.265,372.274 262.691,371.381 263.203 C 370.515 263.700,370.275 264.158,370.070 265.701 C 369.789 267.820,369.344 268.550,368.334 268.550 C 367.773 268.550,367.599 268.963,367.393 270.783 C 367.168 272.772,367.024 273.064,366.078 273.456 C 365.358 273.754,364.934 274.268,364.762 275.050 C 364.623 275.685,364.041 276.643,363.469 277.179 C 362.859 277.750,362.322 278.751,362.171 279.594 C 361.966 280.743,361.690 281.112,360.806 281.420 C 359.999 281.701,359.699 282.049,359.699 282.702 C 359.699 283.238,359.193 284.058,358.437 284.745 C 357.744 285.376,356.975 286.565,356.729 287.387 C 356.418 288.424,356.019 288.947,355.425 289.096 C 354.876 289.234,354.441 289.743,354.215 290.513 C 353.946 291.425,353.617 291.742,352.847 291.831 C 352.016 291.927,351.812 292.162,351.717 293.134 C 351.629 294.032,351.379 294.373,350.689 294.534 C 350.118 294.667,349.626 295.170,349.371 295.882 C 349.147 296.506,347.928 298.027,346.661 299.262 C 345.340 300.549,344.142 302.114,343.850 302.932 C 343.507 303.894,343.050 304.431,342.444 304.583 C 341.911 304.717,341.396 305.237,341.179 305.861 C 340.958 306.493,340.392 307.060,339.759 307.280 C 339.111 307.506,338.615 308.012,338.468 308.597 C 338.299 309.273,337.824 309.676,336.817 309.997 C 335.951 310.273,334.500 311.364,333.064 312.818 C 331.685 314.215,330.272 315.288,329.623 315.430 C 328.804 315.610,328.469 315.942,328.311 316.730 C 328.150 317.539,327.828 317.843,326.950 318.019 C 326.029 318.203,325.800 318.440,325.800 319.209 C 325.800 319.978,325.572 320.215,324.654 320.399 C 323.916 320.546,323.314 321.003,322.963 321.681 C 322.664 322.260,322.039 322.854,321.575 323.002 C 321.111 323.149,320.283 323.749,319.735 324.335 C 319.178 324.932,317.981 325.604,317.015 325.862 C 315.593 326.243,315.270 326.493,315.178 327.286 C 315.089 328.053,314.832 328.271,313.918 328.361 C 313.057 328.445,312.669 328.738,312.371 329.527 C 311.972 330.585,310.786 331.073,308.616 331.073 C 307.845 331.073,307.721 331.255,307.721 332.392 C 307.721 333.647,307.784 333.710,309.040 333.710 C 310.295 333.710,310.358 333.773,310.358 335.028 C 310.358 336.284,310.421 336.347,311.676 336.347 C 312.932 336.347,312.994 336.409,312.994 337.665 C 312.994 338.920,313.057 338.983,314.313 338.983 C 315.568 338.983,315.631 339.046,315.631 340.301 C 315.631 341.557,315.694 341.620,316.949 341.620 C 318.205 341.620,318.267 341.682,318.267 342.938 C 318.267 344.193,318.330 344.256,319.586 344.256 C 320.841 344.256,320.904 344.319,320.904 345.574 C 320.904 346.830,320.967 346.893,322.222 346.893 C 323.478 346.893,323.540 346.955,323.540 348.211 C 323.540 349.417,323.634 349.529,324.641 349.529 C 325.556 349.529,325.782 349.718,325.989 350.659 C 326.233 351.772,326.274 351.789,328.655 351.789 L 331.073 351.789 331.073 353.107 C 331.073 354.363,331.136 354.426,332.392 354.426 C 333.647 354.426,333.710 354.488,333.710 355.744 C 333.710 356.999,333.773 357.062,335.028 357.062 C 336.284 357.062,336.347 357.125,336.347 358.380 L 336.347 359.699 338.983 359.699 L 341.620 359.699 341.620 358.380 C 341.620 357.125,341.682 357.062,342.938 357.062 C 344.193 357.062,344.256 356.999,344.256 355.744 C 344.256 354.488,344.319 354.426,345.574 354.426 C 346.830 354.426,346.893 354.363,346.893 353.107 C 346.893 351.852,346.955 351.789,348.211 351.789 C 349.425 351.789,349.529 351.699,349.529 350.659 C 349.529 349.655,349.655 349.529,350.659 349.529 C 351.699 349.529,351.789 349.425,351.789 348.211 C 351.789 346.955,351.852 346.893,353.107 346.893 C 354.363 346.893,354.426 346.830,354.426 345.574 C 354.426 344.319,354.488 344.256,355.744 344.256 C 356.999 344.256,357.062 344.193,357.062 342.938 C 357.062 341.682,357.125 341.620,358.380 341.620 C 359.636 341.620,359.699 341.557,359.699 340.301 C 359.699 339.046,359.761 338.983,361.017 338.983 C 362.272 338.983,362.335 338.920,362.335 337.665 C 362.335 336.409,362.398 336.347,363.653 336.347 C 364.909 336.347,364.972 336.284,364.972 335.028 C 364.972 333.773,365.035 333.710,366.290 333.710 C 367.546 333.710,367.608 333.647,367.608 332.392 C 367.608 331.136,367.671 331.073,368.927 331.073 C 370.182 331.073,370.245 331.011,370.245 329.755 C 370.245 328.500,370.308 328.437,371.563 328.437 C 372.777 328.437,372.881 328.347,372.881 327.307 C 372.881 326.303,373.007 326.177,374.011 326.177 C 375.052 326.177,375.141 326.072,375.141 324.859 C 375.141 323.603,375.204 323.540,376.460 323.540 C 377.715 323.540,377.778 323.478,377.778 322.222 C 377.778 320.967,377.841 320.904,379.096 320.904 C 380.352 320.904,380.414 320.841,380.414 319.586 C 380.414 318.330,380.477 318.267,381.733 318.267 C 382.988 318.267,383.051 318.205,383.051 316.949 C 383.051 315.694,383.114 315.631,384.369 315.631 C 385.625 315.631,385.687 315.568,385.687 314.313 C 385.687 313.055,385.748 312.994,387.019 312.994 L 388.350 312.994 388.243 309.134 L 388.136 305.273 386.911 305.155 C 385.847 305.052,385.687 304.898,385.687 303.971 C 385.687 302.888,385.134 302.448,383.773 302.448 C 383.222 302.448,383.051 302.181,383.051 301.318 C 383.051 300.278,382.946 300.188,381.733 300.188 C 380.477 300.188,380.414 300.126,380.414 298.870 C 380.414 297.615,380.352 297.552,379.096 297.552 C 377.841 297.552,377.778 297.489,377.778 296.234 C 377.778 294.978,377.715 294.915,376.460 294.915 C 375.204 294.915,375.141 294.852,375.141 293.597 C 375.141 292.390,375.048 292.279,374.035 292.279 C 373.063 292.279,372.915 292.131,372.811 291.055 C 372.708 289.984,372.543 289.816,371.491 289.714 C 370.445 289.613,370.274 289.442,370.173 288.396 C 370.071 287.344,369.903 287.179,368.832 287.076 C 367.712 286.968,367.608 286.849,367.608 285.664 L 367.608 284.369 383.804 284.369 L 400.000 284.369 400.000 249.341 L 400.000 214.313 394.206 214.313 C 388.675 214.313,388.403 214.348,388.209 215.087 " stroke="none" fill="#040404" fill-rule="evenodd"></path><path id="path6" d="M382.141 139.266 C 381.985 139.421,299.810 139.633,199.529 139.736 C 54.453 139.886,17.168 140.021,17.044 140.394 C 16.919 140.768,53.743 140.863,198.745 140.863 L 380.603 140.863 381.733 139.937 C 382.354 139.427,382.764 139.004,382.643 138.997 C 382.522 138.989,382.296 139.110,382.141 139.266 M385.535 213.445 C 385.395 214.440,385.063 216.949,384.798 219.021 C 384.533 221.092,384.055 223.296,383.736 223.917 C 382.987 225.377,382.690 226.654,382.311 230.032 C 382.134 231.606,381.602 233.628,381.067 234.754 C 380.552 235.837,379.947 237.710,379.722 238.917 C 379.497 240.124,378.888 242.008,378.370 243.104 C 377.851 244.200,377.242 245.924,377.015 246.936 C 376.788 247.948,376.287 249.115,375.902 249.529 C 375.517 249.943,374.920 251.384,374.576 252.731 C 374.232 254.077,373.642 255.518,373.266 255.932 C 372.889 256.347,372.298 257.533,371.952 258.569 C 371.606 259.605,370.998 260.800,370.600 261.225 C 370.202 261.650,369.631 262.814,369.331 263.812 C 369.031 264.810,368.463 265.988,368.069 266.429 C 367.676 266.871,367.129 267.825,366.855 268.550 C 366.581 269.275,366.028 270.236,365.626 270.686 C 365.224 271.137,364.497 272.365,364.009 273.417 C 363.522 274.469,362.965 275.330,362.772 275.330 C 362.579 275.330,362.126 275.965,361.766 276.742 C 361.406 277.519,360.802 278.496,360.423 278.913 C 360.044 279.330,359.486 280.262,359.183 280.984 C 358.879 281.707,358.108 282.795,357.470 283.404 C 356.831 284.012,356.309 284.728,356.309 284.993 C 356.309 285.259,355.800 285.852,355.179 286.312 C 354.557 286.771,354.049 287.350,354.049 287.598 C 354.049 287.846,353.286 288.976,352.354 290.108 C 351.422 291.240,350.659 292.288,350.659 292.435 C 350.659 292.583,350.151 293.132,349.529 293.655 C 348.908 294.178,348.399 294.773,348.399 294.977 C 348.399 295.182,347.255 296.512,345.857 297.933 C 342.753 301.088,340.360 303.778,340.183 304.311 C 340.110 304.529,339.832 304.708,339.565 304.708 C 339.298 304.708,338.677 305.300,338.184 306.024 C 337.691 306.747,337.108 307.341,336.888 307.342 C 336.668 307.343,336.112 307.853,335.653 308.475 C 335.193 309.096,334.640 309.605,334.424 309.605 C 334.207 309.605,332.861 310.749,331.433 312.147 C 330.006 313.545,328.196 315.236,327.413 315.905 C 326.630 316.574,325.395 317.648,324.670 318.293 C 323.945 318.937,322.722 319.789,321.952 320.185 C 321.182 320.582,320.371 321.245,320.150 321.658 C 319.929 322.072,319.535 322.411,319.274 322.411 C 319.014 322.411,318.172 323.004,317.403 323.729 C 316.635 324.454,315.879 325.047,315.724 325.047 C 315.569 325.048,314.782 325.636,313.974 326.355 C 313.166 327.074,311.937 327.850,311.243 328.079 C 310.549 328.308,309.981 328.627,309.981 328.788 C 309.981 328.949,309.566 329.529,309.058 330.077 C 307.666 331.578,308.924 331.346,310.655 329.782 C 311.441 329.072,312.565 328.370,313.152 328.223 C 313.748 328.073,314.490 327.482,314.831 326.887 C 315.185 326.270,315.889 325.722,316.502 325.587 C 317.098 325.456,317.738 324.969,317.962 324.476 C 318.182 323.993,318.722 323.506,319.162 323.393 C 319.602 323.281,320.786 322.505,321.792 321.670 C 322.799 320.834,323.854 320.151,324.137 320.151 C 324.420 320.151,324.904 319.662,325.213 319.065 C 325.521 318.468,326.187 317.875,326.691 317.749 C 327.250 317.609,327.755 317.098,327.984 316.441 C 328.254 315.667,328.686 315.299,329.518 315.132 C 330.333 314.969,330.745 314.627,330.908 313.980 C 331.050 313.414,331.503 312.968,332.087 312.822 C 332.673 312.674,333.195 312.159,333.455 311.471 C 333.704 310.812,334.149 310.358,334.545 310.358 C 334.914 310.358,335.914 309.680,336.768 308.851 C 337.622 308.023,338.470 307.345,338.652 307.345 C 338.834 307.345,338.983 307.190,338.983 307.001 C 338.983 306.812,340.085 305.545,341.431 304.185 C 342.778 302.825,343.879 301.386,343.879 300.987 C 343.879 300.518,344.283 300.121,345.024 299.863 C 345.766 299.604,346.304 299.075,346.554 298.357 C 346.766 297.749,347.278 297.162,347.691 297.054 C 348.104 296.946,348.642 296.329,348.886 295.683 C 349.145 294.997,349.679 294.421,350.172 294.297 C 350.687 294.168,351.191 293.599,351.468 292.832 C 351.717 292.143,352.217 291.501,352.579 291.407 C 352.941 291.312,353.576 290.580,353.992 289.779 C 354.407 288.979,355.268 287.763,355.904 287.077 C 356.541 286.391,357.063 285.543,357.065 285.193 C 357.066 284.844,357.574 284.269,358.194 283.916 C 358.824 283.558,359.322 282.959,359.322 282.561 C 359.322 282.169,359.904 281.249,360.615 280.517 C 361.370 279.740,362.014 278.619,362.163 277.823 C 362.304 277.073,362.628 276.460,362.884 276.460 C 363.548 276.460,364.595 275.202,364.595 274.404 C 364.595 274.031,365.188 273.069,365.913 272.267 C 366.761 271.329,367.232 270.430,367.232 269.750 C 367.232 269.013,367.572 268.440,368.349 267.866 C 369.240 267.206,369.517 266.653,369.720 265.126 C 369.915 263.653,370.167 263.124,370.815 262.830 C 371.658 262.445,372.505 260.412,372.505 258.772 C 372.505 258.281,372.786 257.860,373.183 257.756 C 374.167 257.499,374.776 256.321,375.029 254.190 C 375.184 252.875,375.556 251.989,376.276 251.219 C 377.299 250.123,377.778 248.680,377.778 246.686 C 377.778 246.031,378.182 245.228,378.848 244.562 C 379.773 243.637,379.954 243.093,380.185 240.544 C 380.408 238.083,380.604 237.462,381.371 236.783 C 382.222 236.030,383.031 232.057,383.048 228.546 C 383.049 228.191,383.367 227.598,383.754 227.227 C 384.644 226.374,385.206 223.786,385.515 219.115 C 385.724 215.960,385.851 215.443,386.417 215.443 C 387.494 215.443,388.396 214.165,388.113 213.039 C 387.977 212.496,387.644 212.053,387.372 212.053 C 387.101 212.053,386.634 211.959,386.334 211.844 C 385.924 211.686,385.727 212.082,385.535 213.445 M14.478 215.819 C 14.577 216.544,14.767 218.324,14.900 219.774 C 15.151 222.520,15.896 224.859,16.520 224.859 C 16.925 224.859,17.175 226.283,17.529 230.613 C 17.724 232.993,17.949 233.757,18.729 234.684 C 19.487 235.585,19.749 236.424,19.967 238.652 C 20.189 240.919,20.431 241.679,21.189 242.491 C 21.812 243.158,22.220 244.145,22.387 245.386 C 22.752 248.109,23.317 249.672,24.085 250.083 C 24.531 250.322,24.844 251.092,25.012 252.360 C 25.195 253.736,25.573 254.597,26.352 255.413 C 27.017 256.109,27.539 257.159,27.699 258.124 C 28.032 260.137,28.446 260.909,29.345 261.195 C 29.868 261.361,30.133 261.915,30.312 263.215 C 30.599 265.306,30.780 265.646,31.921 266.247 C 32.427 266.514,32.768 267.044,32.768 267.565 C 32.768 269.173,33.563 270.806,34.455 271.030 C 35.154 271.205,35.350 271.571,35.511 273.000 C 35.661 274.329,35.977 274.986,36.807 275.702 C 37.412 276.222,38.120 277.183,38.381 277.836 C 38.643 278.490,39.153 279.102,39.515 279.197 C 39.922 279.303,40.367 280.058,40.679 281.170 C 41.037 282.448,41.489 283.147,42.239 283.576 C 42.838 283.919,43.394 284.631,43.524 285.223 C 43.663 285.855,44.187 286.489,44.852 286.834 C 45.573 287.206,45.951 287.694,45.951 288.250 C 45.951 288.716,46.417 289.517,46.987 290.029 C 47.556 290.541,48.358 291.597,48.769 292.375 C 49.179 293.153,49.796 293.879,50.140 293.988 C 50.485 294.098,50.981 294.704,51.242 295.336 C 51.504 295.968,52.124 296.639,52.620 296.828 C 53.116 297.017,53.700 297.681,53.917 298.305 C 54.158 298.996,54.657 299.526,55.194 299.661 C 55.782 299.808,56.158 300.253,56.320 300.993 C 56.502 301.822,56.832 302.157,57.621 302.315 C 58.400 302.471,58.734 302.802,58.888 303.572 C 59.033 304.298,59.397 304.693,60.081 304.864 C 60.709 305.022,61.202 305.503,61.443 306.193 C 61.675 306.860,62.177 307.365,62.750 307.509 C 63.262 307.637,63.836 308.153,64.027 308.655 C 64.218 309.158,64.870 309.825,65.476 310.138 C 66.083 310.452,66.683 311.124,66.811 311.633 C 66.970 312.270,67.394 312.635,68.173 312.806 C 68.895 312.964,69.303 313.288,69.303 313.702 C 69.303 314.603,70.046 315.254,71.073 315.254 C 71.664 315.254,71.940 315.475,71.940 315.949 C 71.940 316.764,73.070 317.891,73.886 317.891 C 74.199 317.891,74.650 318.318,74.888 318.840 C 75.126 319.362,75.767 319.959,76.313 320.167 C 76.859 320.374,77.625 320.949,78.014 321.444 C 78.404 321.940,79.477 322.710,80.398 323.156 C 81.320 323.602,82.175 324.283,82.297 324.669 C 82.420 325.056,83.018 325.481,83.626 325.614 C 84.295 325.761,84.921 326.244,85.210 326.837 C 85.472 327.376,86.196 327.983,86.817 328.186 C 87.439 328.390,88.169 328.869,88.441 329.252 C 88.944 329.961,90.805 331.073,91.489 331.073 C 91.696 331.073,91.450 330.625,90.942 330.077 C 90.434 329.529,90.019 328.970,90.019 328.834 C 90.019 328.699,89.405 328.366,88.654 328.095 C 87.903 327.823,86.759 327.094,86.112 326.474 C 85.464 325.855,84.489 325.117,83.944 324.835 C 83.399 324.552,82.851 324.053,82.725 323.726 C 82.599 323.398,81.913 322.886,81.200 322.588 C 80.487 322.290,79.798 321.714,79.669 321.306 C 79.540 320.899,79.061 320.450,78.606 320.308 C 78.150 320.167,77.169 319.522,76.424 318.877 C 75.680 318.231,74.257 317.024,73.263 316.196 C 72.269 315.367,70.789 314.054,69.973 313.277 C 69.158 312.500,68.339 311.864,68.153 311.864 C 67.968 311.864,67.564 311.377,67.256 310.782 C 66.949 310.187,66.338 309.607,65.901 309.492 C 65.463 309.377,65.010 308.925,64.896 308.487 C 64.781 308.049,64.213 307.446,63.632 307.145 C 63.052 306.845,62.473 306.271,62.345 305.870 C 62.218 305.468,61.528 304.794,60.812 304.372 C 60.096 303.949,59.510 303.416,59.510 303.187 C 59.510 302.660,58.560 301.695,58.039 301.695 C 57.822 301.695,57.347 301.229,56.983 300.659 C 56.620 300.089,55.846 299.115,55.264 298.493 C 52.558 295.604,52.049 295.001,51.054 293.503 C 50.470 292.622,49.866 291.902,49.712 291.902 C 49.558 291.902,49.219 291.387,48.958 290.758 C 48.698 290.128,48.169 289.445,47.784 289.239 C 47.399 289.032,46.751 288.212,46.345 287.416 C 45.939 286.620,45.354 285.872,45.045 285.753 C 44.736 285.635,44.197 284.978,43.847 284.294 C 43.496 283.610,42.806 282.643,42.313 282.144 C 41.820 281.646,41.313 280.798,41.188 280.261 C 41.062 279.724,40.504 278.776,39.949 278.154 C 38.180 276.177,36.334 273.126,33.679 267.797 C 33.112 266.657,32.258 265.254,31.781 264.678 C 31.305 264.102,30.799 263.001,30.658 262.230 C 30.517 261.459,29.942 260.301,29.381 259.656 C 28.820 259.010,28.255 257.818,28.125 257.005 C 27.995 256.192,27.526 255.138,27.083 254.662 C 26.640 254.187,26.031 252.837,25.729 251.663 C 25.428 250.490,24.794 248.936,24.320 248.211 C 23.846 247.486,23.248 245.876,22.990 244.633 C 22.732 243.390,22.195 241.838,21.798 241.185 C 21.400 240.531,20.755 238.533,20.365 236.745 C 19.974 234.956,19.484 233.287,19.277 233.036 C 18.690 232.327,17.703 228.132,17.694 226.311 C 17.690 225.409,17.337 223.908,16.910 222.976 C 16.484 222.043,15.894 220.037,15.600 218.516 C 15.023 215.531,14.151 213.436,14.478 215.819 " stroke="none" fill="#041c1c" fill-rule="evenodd"></path><path id="path7" d="M199.153 139.266 C 98.941 139.318,16.949 139.487,16.949 139.643 C 16.949 140.012,381.771 139.635,382.141 139.266 C 382.296 139.110,382.183 139.025,381.890 139.077 C 381.596 139.128,299.364 139.213,199.153 139.266 M387.605 214.836 C 387.328 215.170,386.784 215.443,386.395 215.443 C 386.006 215.443,385.687 215.697,385.687 216.008 C 385.687 216.318,385.923 216.573,386.211 216.573 C 387.003 216.573,388.453 215.264,388.269 214.714 C 388.148 214.349,387.985 214.379,387.605 214.836 M14.547 219.934 C 14.737 224.211,15.236 226.061,16.312 226.474 C 16.679 226.615,16.908 227.739,17.086 230.272 C 17.437 235.267,17.660 236.155,18.679 236.619 C 19.337 236.919,19.582 237.390,19.689 238.564 L 19.831 240.113 19.891 238.418 C 19.950 236.772,19.708 236.101,18.386 234.231 C 17.965 233.635,17.628 231.982,17.385 229.318 C 17.090 226.099,16.865 225.152,16.251 224.537 C 15.430 223.716,15.176 222.727,14.675 218.394 C 14.407 216.078,14.386 216.326,14.547 219.934 M385.383 220.831 C 385.287 223.738,384.607 226.398,383.748 227.227 C 383.024 227.927,382.789 229.379,383.400 229.379 C 384.860 229.379,385.859 225.612,385.598 221.092 L 385.456 218.644 385.383 220.831 M382.597 233.145 C 382.373 235.520,382.178 236.102,381.373 236.799 C 380.846 237.255,380.414 238.007,380.414 238.470 C 380.414 239.291,380.443 239.285,381.530 238.244 C 382.763 237.062,383.183 235.317,382.983 232.203 C 382.870 230.439,382.846 230.498,382.597 233.145 M380.101 241.554 C 380.050 243.025,379.822 243.588,378.908 244.502 C 377.299 246.111,377.294 247.685,378.903 246.144 C 380.135 244.963,380.551 243.517,380.317 241.226 C 380.170 239.787,380.162 239.799,380.101 241.554 M19.986 241.544 C 19.956 242.892,20.945 244.821,21.667 244.821 C 22.488 244.821,22.341 243.538,21.424 242.714 C 20.986 242.319,20.488 241.657,20.318 241.243 C 20.050 240.588,20.007 240.627,19.986 241.544 M22.274 247.249 C 22.223 249.066,23.615 251.977,24.533 251.977 C 25.165 251.977,24.849 250.492,24.136 250.110 C 23.440 249.738,22.815 248.309,22.483 246.328 C 22.396 245.810,22.302 246.224,22.274 247.249 M377.401 249.301 C 377.401 249.693,376.893 250.559,376.271 251.224 C 374.502 253.118,375.037 253.999,376.853 252.183 C 377.671 251.365,378.239 248.588,377.589 248.588 C 377.486 248.588,377.401 248.909,377.401 249.301 M24.891 253.785 C 24.852 255.283,25.719 257.080,26.746 257.629 C 27.240 257.893,27.495 258.418,27.495 259.166 C 27.495 260.560,28.393 262.373,29.332 262.875 C 29.800 263.126,30.095 263.818,30.225 264.973 C 30.423 266.726,31.344 268.173,32.262 268.173 C 33.092 268.173,32.836 266.729,31.921 266.247 C 30.780 265.646,30.599 265.306,30.312 263.215 C 30.133 261.915,29.868 261.361,29.345 261.195 C 28.441 260.908,28.032 260.137,27.691 258.080 C 27.529 257.102,27.059 256.123,26.504 255.608 C 25.999 255.140,25.436 254.258,25.254 253.649 L 24.924 252.542 24.891 253.785 M374.753 255.650 C 374.738 256.476,374.026 257.409,373.164 257.733 C 372.801 257.869,372.505 258.347,372.505 258.796 C 372.505 260.414,371.653 262.448,370.815 262.830 C 370.167 263.124,369.915 263.653,369.720 265.126 C 369.517 266.653,369.240 267.206,368.349 267.866 C 367.571 268.441,367.249 268.984,367.288 269.657 C 367.344 270.615,367.346 270.615,367.501 269.586 C 367.606 268.895,367.885 268.550,368.340 268.550 C 369.344 268.550,369.790 267.816,370.070 265.701 C 370.275 264.158,370.515 263.700,371.381 263.203 C 372.274 262.691,372.483 262.265,372.701 260.517 C 372.930 258.688,373.092 258.385,374.051 257.987 C 374.949 257.615,375.141 257.312,375.141 256.263 C 375.141 254.988,374.775 254.410,374.753 255.650 M32.798 269.700 C 32.779 270.330,33.223 271.103,34.087 271.940 L 35.405 273.217 35.405 272.243 C 35.405 271.526,35.164 271.208,34.495 271.040 C 33.963 270.906,33.428 270.381,33.206 269.775 L 32.828 268.738 32.798 269.700 M365.789 272.334 C 365.035 273.210,364.604 274.063,364.709 274.467 C 364.853 275.021,364.892 275.032,364.928 274.528 C 364.952 274.190,365.480 273.704,366.102 273.446 C 366.987 273.080,367.232 272.744,367.232 271.894 C 367.232 270.579,367.320 270.552,365.789 272.334 M35.429 274.595 C 35.401 275.695,36.022 276.460,36.942 276.460 C 37.381 276.460,37.710 276.995,38.015 278.204 C 38.289 279.292,38.872 280.316,39.566 280.925 C 40.209 281.489,40.678 282.276,40.678 282.791 C 40.678 283.430,40.990 283.799,41.786 284.099 C 42.465 284.356,42.985 284.881,43.129 285.456 C 43.259 285.973,43.868 286.910,44.484 287.540 C 45.100 288.170,45.704 289.112,45.828 289.634 C 46.095 290.766,47.015 291.902,47.663 291.902 C 47.920 291.902,48.246 292.366,48.388 292.934 C 48.683 294.108,49.198 294.536,50.282 294.507 C 51.022 294.488,51.022 294.481,50.260 294.111 C 49.834 293.904,49.156 293.110,48.754 292.347 C 48.352 291.585,47.556 290.541,46.987 290.029 C 46.417 289.517,45.951 288.716,45.951 288.250 C 45.951 287.694,45.573 287.206,44.852 286.834 C 44.187 286.489,43.663 285.855,43.524 285.223 C 43.394 284.631,42.838 283.919,42.239 283.576 C 41.489 283.147,41.037 282.448,40.679 281.170 C 40.359 280.028,39.925 279.304,39.494 279.191 C 39.120 279.093,38.604 278.435,38.349 277.728 C 38.093 277.021,37.487 276.183,37.001 275.864 C 36.515 275.546,35.968 274.914,35.785 274.460 C 35.463 273.660,35.452 273.664,35.429 274.595 M363.876 275.853 C 363.599 276.187,363.158 276.460,362.896 276.460 C 362.634 276.460,362.304 277.073,362.163 277.823 C 362.014 278.619,361.370 279.740,360.615 280.517 C 359.904 281.249,359.322 282.169,359.322 282.561 C 359.322 282.959,358.824 283.558,358.194 283.916 C 357.574 284.269,357.066 284.844,357.065 285.193 C 357.063 285.543,356.541 286.391,355.904 287.077 C 355.268 287.763,354.413 288.968,354.004 289.755 C 353.596 290.542,352.888 291.344,352.431 291.538 C 351.686 291.854,351.716 291.881,352.731 291.802 C 353.644 291.731,353.929 291.483,354.215 290.513 C 354.441 289.743,354.876 289.234,355.425 289.096 C 356.019 288.947,356.418 288.424,356.729 287.387 C 356.975 286.565,357.744 285.376,358.437 284.745 C 359.193 284.058,359.699 283.238,359.699 282.702 C 359.699 282.049,359.999 281.701,360.806 281.420 C 361.690 281.112,361.966 280.743,362.171 279.594 C 362.328 278.718,362.864 277.747,363.541 277.113 C 364.153 276.540,364.592 275.886,364.517 275.659 C 364.432 275.407,364.184 275.482,363.876 275.853 M351.270 293.277 C 351.126 293.723,350.631 294.182,350.169 294.298 C 349.679 294.421,349.144 294.998,348.886 295.683 C 348.642 296.329,348.104 296.946,347.691 297.054 C 347.278 297.162,346.766 297.749,346.554 298.357 C 346.304 299.075,345.766 299.604,345.024 299.863 C 344.283 300.121,343.879 300.518,343.879 300.987 C 343.879 301.386,342.778 302.825,341.431 304.185 C 340.085 305.545,338.983 306.812,338.983 307.001 C 338.983 307.190,338.834 307.345,338.652 307.345 C 338.470 307.345,337.622 308.023,336.768 308.851 C 335.914 309.680,334.914 310.358,334.545 310.358 C 334.149 310.358,333.704 310.812,333.455 311.471 C 333.190 312.174,332.674 312.674,332.054 312.830 C 331.515 312.965,331.073 313.300,331.073 313.573 C 331.073 313.847,330.807 314.337,330.482 314.662 C 330.156 314.988,330.063 315.254,330.275 315.254 C 330.487 315.254,331.727 314.173,333.032 312.851 C 334.495 311.370,335.947 310.275,336.817 309.997 C 337.824 309.676,338.299 309.273,338.468 308.597 C 338.617 308.004,339.113 307.505,339.789 307.270 C 340.461 307.036,340.960 306.536,341.107 305.952 C 341.248 305.389,341.749 304.869,342.352 304.659 C 343.029 304.423,343.524 303.848,343.859 302.907 C 344.141 302.117,345.362 300.528,346.661 299.262 C 347.928 298.027,349.148 296.501,349.373 295.872 C 349.634 295.140,350.083 294.682,350.620 294.604 C 351.505 294.473,351.971 293.758,351.695 292.950 C 351.595 292.658,351.428 292.787,351.270 293.277 M50.935 295.669 C 51.005 296.320,51.413 296.776,52.260 297.149 C 53.091 297.515,53.484 297.946,53.484 298.492 C 53.484 298.938,54.072 299.817,54.802 300.464 C 55.527 301.105,56.121 301.815,56.121 302.039 C 56.121 302.264,56.332 302.451,56.591 302.455 C 57.166 302.463,58.757 304.088,58.757 304.667 C 58.757 304.897,58.927 305.085,59.134 305.085 C 59.625 305.085,60.819 306.287,61.128 307.091 C 61.261 307.438,61.553 307.721,61.776 307.721 C 62.000 307.721,62.602 308.187,63.115 308.757 C 65.178 311.051,67.117 312.995,67.356 313.010 C 67.495 313.019,68.024 313.528,68.532 314.140 C 69.040 314.753,69.625 315.254,69.832 315.254 C 70.039 315.254,70.004 315.051,69.755 314.802 C 69.507 314.554,69.303 314.059,69.303 313.702 C 69.303 313.288,68.895 312.964,68.173 312.806 C 67.394 312.635,66.970 312.270,66.811 311.633 C 66.683 311.124,66.083 310.452,65.476 310.138 C 64.870 309.825,64.218 309.158,64.027 308.655 C 63.836 308.153,63.262 307.637,62.750 307.509 C 62.177 307.365,61.675 306.860,61.443 306.193 C 61.202 305.503,60.709 305.022,60.081 304.864 C 59.397 304.693,59.033 304.298,58.888 303.572 C 58.734 302.802,58.400 302.471,57.621 302.315 C 56.832 302.157,56.502 301.822,56.320 300.993 C 56.158 300.253,55.782 299.808,55.194 299.661 C 54.650 299.524,54.157 298.993,53.906 298.274 C 53.682 297.630,53.154 297.018,52.726 296.906 C 52.300 296.795,51.701 296.259,51.393 295.715 L 50.835 294.727 50.935 295.669 M70.810 315.529 C 71.121 315.647,71.499 315.930,71.651 316.158 C 71.822 316.414,71.930 316.320,71.934 315.913 C 71.938 315.471,71.662 315.264,71.092 315.284 C 70.526 315.304,70.432 315.385,70.810 315.529 M328.027 316.282 C 327.812 316.848,327.435 317.438,327.189 317.595 C 326.891 317.785,326.965 317.881,327.411 317.885 C 327.852 317.889,328.155 317.513,328.301 316.780 C 328.423 316.169,328.801 315.596,329.139 315.506 C 329.666 315.365,329.658 315.335,329.087 315.298 C 328.682 315.272,328.264 315.661,328.027 316.282 M71.940 317.326 C 71.940 317.637,72.215 317.891,72.551 317.891 C 73.051 317.891,73.077 317.789,72.693 317.326 C 72.435 317.015,72.160 316.761,72.082 316.761 C 72.004 316.761,71.940 317.015,71.940 317.326 M73.642 318.179 C 73.854 318.331,74.226 318.910,74.469 319.465 C 74.771 320.151,75.249 320.512,75.968 320.594 C 76.743 320.683,77.058 320.950,77.149 321.595 C 77.229 322.159,77.702 322.660,78.467 322.993 C 79.124 323.278,80.067 323.949,80.564 324.484 C 81.060 325.018,82.196 325.651,83.088 325.890 C 84.408 326.243,84.731 326.503,84.822 327.286 C 84.912 328.055,85.161 328.266,86.064 328.337 C 87.101 328.418,87.124 328.396,86.341 328.064 C 85.872 327.866,85.331 327.291,85.140 326.787 C 84.918 326.204,84.377 325.779,83.655 325.621 C 83.030 325.483,82.420 325.056,82.297 324.669 C 82.175 324.283,81.320 323.602,80.398 323.156 C 79.477 322.710,78.404 321.940,78.014 321.444 C 77.625 320.949,76.859 320.374,76.313 320.167 C 75.767 319.959,75.126 319.362,74.888 318.840 C 74.650 318.318,74.186 317.893,73.857 317.897 C 73.503 317.900,73.415 318.016,73.642 318.179 M325.235 319.021 C 324.914 319.642,324.420 320.151,324.137 320.151 C 323.854 320.151,322.799 320.834,321.792 321.670 C 320.786 322.505,319.602 323.281,319.162 323.393 C 318.722 323.506,318.188 323.980,317.976 324.446 C 317.764 324.912,317.022 325.475,316.328 325.697 C 315.518 325.955,315.336 326.111,315.819 326.130 C 316.961 326.176,319.662 324.831,320.110 323.992 C 320.329 323.584,320.933 323.144,321.452 323.013 C 321.972 322.883,322.647 322.293,322.952 321.702 C 323.313 321.004,323.909 320.548,324.654 320.399 C 325.556 320.218,325.800 319.973,325.800 319.250 C 325.800 318.744,326.012 318.245,326.271 318.140 C 326.632 317.995,326.634 317.943,326.281 317.921 C 326.027 317.904,325.557 318.399,325.235 319.021 M314.767 327.053 C 314.630 327.410,314.133 327.856,313.662 328.045 C 312.837 328.377,312.844 328.390,313.854 328.413 C 314.898 328.437,315.470 327.765,315.171 326.868 C 315.070 326.566,314.928 326.631,314.767 327.053 M87.382 328.930 C 87.382 329.827,88.306 330.623,89.642 330.877 L 90.960 331.128 89.724 330.345 C 89.043 329.915,88.390 329.309,88.271 329.000 C 88.005 328.306,87.382 328.257,87.382 328.930 M310.605 329.803 L 309.157 331.149 310.416 330.888 C 311.705 330.620,312.618 329.809,312.618 328.930 C 312.618 328.157,312.165 328.353,310.605 329.803 " stroke="none" fill="#041414" fill-rule="evenodd"></path><path id="path8" d="" stroke="none" fill="#240c08" fill-rule="evenodd"></path></g></svg>